<svg version="1.1" id="Layer_1" xmlns="http://www.w3.org/2000/svg" x="0" y="0" viewBox="0 0 400 400" xml:space="preserve">
  <style>
    .st0{fill:#00cf5d}
  </style>
  <path class="st0" d="M284.375 4.349 C 274.662 6.452,265.291 12.459,260.217 19.833 C 258.110 22.896,257.645 23.148,252.467 24.036 C 224.671 28.803,216.476 58.729,239.378 71.832 L 243.439 74.155 241.756 90.789 C 240.338 104.813,239.739 108.209,237.939 112.438 C 228.089 135.591,232.357 160.147,249.437 178.586 L 253.844 183.345 244.515 187.052 L 235.186 190.758 223.690 205.159 C 217.367 213.079,211.891 219.458,211.520 219.335 C 206.886 217.790,184.941 198.162,181.604 192.578 C 179.550 189.141,176.906 185.090,175.729 183.576 C 173.650 180.904,173.580 180.485,173.302 169.123 C 172.945 154.492,170.319 148.911,162.013 145.127 C 160.163 144.283,160.156 144.233,160.156 130.834 L 160.156 117.388 166.211 117.027 C 175.491 116.472,181.559 112.507,185.095 104.688 C 187.712 98.900,187.538 54.519,184.876 48.828 C 180.059 38.529,176.589 37.167,154.427 36.873 C 131.131 36.564,126.362 38.185,121.455 48.080 C 118.808 53.417,118.713 99.259,121.337 104.939 C 124.984 112.835,130.597 116.463,140.039 117.027 L 146.094 117.388 146.094 130.834 C 146.094 144.233,146.087 144.283,144.237 145.127 C 135.140 149.271,133.325 153.921,132.733 174.609 C 132.457 184.228,131.802 193.517,131.244 195.703 C 128.440 206.698,134.509 216.767,149.096 225.319 C 153.109 227.671,163.357 236.017,178.891 249.583 C 211.909 278.418,213.530 278.764,234.328 261.403 C 239.244 257.300,243.414 254.091,243.596 254.273 C 243.777 254.454,241.518 277.473,238.574 305.426 L 233.223 356.250 175.589 356.250 L 117.955 356.250 121.796 348.633 C 125.309 341.667,125.961 340.850,129.420 339.077 C 141.170 333.055,146.875 321.565,146.875 303.920 C 146.875 295.955,146.979 295.385,148.524 294.894 C 163.883 290.020,163.295 264.945,147.656 257.874 C 142.880 255.714,19.416 255.319,13.181 257.444 C -3.173 263.016,-4.679 289.204,11.040 294.684 L 13.116 295.408 13.414 307.274 C 13.832 323.916,19.372 334.025,31.110 339.559 C 33.781 340.819,41.406 352.898,41.406 355.870 C 41.406 356.079,33.016 356.250,22.762 356.250 C 5.082 356.250,4.010 356.334,2.058 357.869 L -0.000 359.488 0.025 376.033 C 0.052 393.844,0.196 394.535,4.216 396.063 C 7.900 397.464,392.313 397.170,395.679 395.764 C 399.624 394.115,400.180 391.289,399.871 374.472 C 399.617 360.698,399.553 360.219,397.715 358.264 L 395.821 356.250 374.083 356.250 C 362.126 356.250,352.344 355.966,352.344 355.618 C 352.344 355.270,350.235 334.996,347.658 310.564 C 345.081 286.132,343.092 266.022,343.239 265.876 C 344.731 264.383,352.752 280.045,354.343 287.560 C 357.868 304.200,366.315 311.942,379.629 310.735 C 397.220 309.140,404.851 292.716,396.309 274.834 C 390.495 262.661,352.275 192.894,350.667 191.517 C 349.899 190.860,345.176 188.689,340.171 186.694 L 331.072 183.065 333.462 181.181 C 351.323 167.099,357.735 137.720,348.211 113.600 C 345.800 107.496,345.307 105.009,344.197 93.359 C 343.501 86.055,342.741 78.807,342.508 77.253 C 342.108 74.581,342.271 74.318,345.510 72.420 C 369.064 58.617,361.234 28.428,332.945 23.974 C 327.936 23.185,327.626 23.005,324.999 19.348 C 316.220 7.130,299.699 1.030,284.375 4.349 M302.932 19.616 C 308.196 21.873,312.328 25.501,314.975 30.191 C 318.329 36.134,320.342 37.500,325.745 37.500 C 347.117 37.500,352.477 54.875,333.319 62.051 C 327.203 64.342,327.090 65.044,329.324 86.772 C 330.360 96.840,331.216 106.221,331.228 107.617 L 331.250 110.156 292.530 110.156 L 253.811 110.156 254.258 106.836 C 255.155 100.172,257.813 72.234,257.813 69.465 C 257.813 65.609,255.685 63.167,250.792 61.408 C 232.929 54.984,239.741 37.500,260.107 37.500 C 265.477 37.500,267.080 36.466,270.153 31.021 C 276.769 19.299,290.802 14.416,302.932 19.616 M146.094 76.953 L 146.094 103.125 142.527 103.125 C 138.767 103.125,136.175 102.126,134.595 100.068 C 133.900 99.163,133.637 92.897,133.619 76.864 L 133.594 54.901 135.653 52.841 C 137.367 51.128,138.418 50.781,141.903 50.781 L 146.094 50.781 146.094 76.953 M169.599 51.783 C 172.429 53.956,172.656 55.819,172.656 76.865 C 172.656 102.347,172.389 103.125,163.635 103.125 L 160.156 103.125 160.156 76.953 L 160.156 50.781 164.258 50.806 C 166.514 50.820,168.917 51.259,169.599 51.783 M338.201 129.166 C 344.753 166.788,303.955 195.465,270.392 176.828 C 253.250 167.310,241.779 141.002,248.049 125.586 C 248.569 124.306,251.450 124.219,292.972 124.219 L 337.340 124.219 338.201 129.166 M157.617 159.839 C 159.122 161.522,159.375 162.684,159.375 167.899 L 159.375 173.993 154.483 174.450 C 151.792 174.701,148.979 175.141,148.233 175.427 C 146.598 176.055,146.202 164.052,147.745 160.663 C 149.556 156.690,154.440 156.282,157.617 159.839 M72.656 183.594 L 72.656 190.625 79.688 190.625 L 86.719 190.625 86.719 183.594 L 86.719 176.563 79.688 176.563 L 72.656 176.563 72.656 183.594 M160.695 189.802 C 163.809 191.215,164.977 192.594,169.180 199.818 L 170.665 202.370 164.713 208.321 L 158.761 214.273 154.576 211.874 C 146.366 207.169,143.717 202.965,145.330 197.202 C 147.353 189.978,154.015 186.769,160.695 189.802 M39.844 196.875 L 39.844 203.906 46.875 203.906 L 53.906 203.906 53.906 196.875 L 53.906 189.844 46.875 189.844 L 39.844 189.844 39.844 196.875 M106.250 196.875 L 106.250 203.906 113.281 203.906 L 120.313 203.906 120.313 196.875 L 120.313 189.844 113.281 189.844 L 106.250 189.844 106.250 196.875 M318.734 211.268 C 321.321 221.063,323.438 229.215,323.438 229.383 C 323.438 229.965,262.500 229.684,262.473 229.102 C 262.458 228.779,264.479 220.671,266.965 211.084 C 271.459 193.750,271.495 193.655,273.438 194.096 C 288.189 197.447,299.843 197.654,308.984 194.727 C 311.563 193.901,313.753 193.278,313.851 193.342 C 313.950 193.406,316.147 201.472,318.734 211.268 M358.045 233.500 C 367.370 250.601,375.000 264.767,375.000 264.981 C 375.000 265.488,362.582 268.325,362.216 267.902 C 362.061 267.724,356.899 260.020,350.744 250.781 C 338.462 232.348,339.604 234.991,332.968 209.661 L 329.870 197.838 335.480 200.123 L 341.090 202.407 358.045 233.500 M255.429 199.023 C 255.408 199.346,253.386 207.047,250.937 216.136 L 246.484 232.664 231.365 245.243 C 223.050 252.162,215.353 258.047,214.261 258.321 C 211.497 259.015,211.128 258.740,189.512 239.858 L 170.298 223.075 175.325 218.049 L 180.352 213.022 191.543 221.994 C 216.086 241.670,212.511 241.950,230.933 218.909 C 243.428 203.283,244.030 202.664,248.691 200.650 C 253.744 198.467,255.495 198.044,255.429 199.023 M72.656 219.922 L 72.656 236.719 79.688 236.719 L 86.719 236.719 86.719 219.922 L 86.719 203.125 79.688 203.125 L 72.656 203.125 72.656 219.922 M39.844 230.078 L 39.844 243.750 46.875 243.750 L 53.906 243.750 53.906 230.078 L 53.906 216.406 46.875 216.406 L 39.844 216.406 39.844 230.078 M106.250 230.078 L 106.250 243.750 113.281 243.750 L 120.313 243.750 120.313 230.078 L 120.313 216.406 113.281 216.406 L 106.250 216.406 106.250 230.078 M326.563 244.609 C 326.563 245.825,337.374 348.907,337.923 352.930 L 338.377 356.250 293.017 356.250 C 252.058 356.250,247.656 356.129,247.656 355.007 C 247.656 353.255,258.523 249.381,259.030 246.289 L 259.446 243.750 293.004 243.750 C 316.877 243.750,326.563 243.998,326.563 244.609 M268.208 271.420 L 266.016 273.309 266.026 288.022 C 266.044 312.495,274.151 323.033,292.969 323.043 C 311.046 323.053,318.982 313.119,319.399 289.954 C 319.797 267.856,322.023 269.531,292.270 269.531 L 270.400 269.531 268.208 271.420 M142.455 271.180 C 146.431 272.991,147.053 277.286,143.810 280.529 L 141.526 282.813 79.712 282.813 L 17.898 282.813 15.980 280.895 C 14.771 279.686,14.063 278.085,14.063 276.563 C 14.063 275.040,14.771 273.439,15.980 272.230 L 17.898 270.313 79.225 270.313 C 122.506 270.313,141.112 270.568,142.455 271.180 M383.971 282.005 C 387.223 288.422,386.291 293.096,381.241 295.708 C 374.963 298.954,369.799 294.709,368.370 285.126 L 367.841 281.580 374.350 279.936 C 377.930 279.032,381.117 278.255,381.432 278.209 C 381.747 278.163,382.890 279.871,383.971 282.005 M305.341 292.524 C 305.043 302.635,304.244 304.466,298.755 307.604 C 288.373 313.541,279.702 305.551,279.692 290.039 L 279.688 283.594 292.645 283.594 L 305.603 283.594 305.341 292.524 M132.813 304.155 C 132.813 316.515,129.522 323.197,121.390 327.350 L 117.578 329.297 80.078 329.297 C 38.034 329.297,38.901 329.405,32.881 323.386 C 28.402 318.907,27.380 315.627,27.361 305.664 L 27.344 296.875 80.078 296.875 L 132.813 296.875 132.813 304.155 M72.656 350.000 L 72.656 356.250 65.243 356.250 L 57.830 356.250 54.688 350.000 L 51.545 343.750 62.101 343.750 L 72.656 343.750 72.656 350.000 M107.813 344.128 C 107.813 344.335,106.505 347.148,104.907 350.378 L 102.001 356.250 94.360 356.250 L 86.719 356.250 86.719 350.000 L 86.719 343.750 97.266 343.750 C 103.066 343.750,107.813 343.920,107.813 344.128 M385.938 376.563 L 385.938 382.813 200.000 382.813 L 14.063 382.813 14.063 376.563 L 14.063 370.313 200.000 370.313 L 385.938 370.313 385.938 376.563 "/>
</svg>
