<svg id="svg" version="1.1" xmlns="http://www.w3.org/2000/svg" xmlns:xlink="http://www.w3.org/1999/xlink" width="400" height="400" viewBox="0, 0, 400,400"><g id="svgg"><path id="path0" d="M180.263 0.807 C 124.609 9.484,95.329 45.385,95.314 104.966 C 95.313 112.350,95.216 112.788,92.958 115.639 C 88.487 121.283,87.907 123.567,87.900 135.547 C 87.888 154.641,94.480 162.729,110.972 163.860 L 117.056 164.277 118.773 169.052 C 123.001 180.809,131.571 194.188,141.128 203.950 L 146.142 209.072 140.844 214.186 C 132.552 222.192,127.347 224.209,110.938 225.775 C 86.878 228.073,73.117 236.961,59.978 258.691 C 55.089 266.776,56.570 272.227,63.519 271.723 C 66.730 271.489,66.903 271.326,72.011 263.672 C 84.451 245.033,93.288 240.062,118.413 237.572 L 127.060 236.715 133.695 243.162 C 165.222 273.800,236.080 273.241,267.213 242.108 L 272.640 236.681 281.437 237.555 C 314.078 240.797,319.377 245.564,345.179 294.900 C 350.791 305.630,355.293 314.499,355.183 314.608 C 355.074 314.718,351.841 314.440,348.000 313.991 C 340.428 313.106,331.905 313.511,320.397 315.302 C 316.361 315.931,312.952 316.338,312.821 316.207 C 312.691 316.076,313.281 309.170,314.134 300.861 C 316.087 281.841,315.278 278.557,307.548 274.128 L 304.297 272.266 258.720 272.266 L 213.143 272.266 211.650 274.110 C 209.577 276.670,209.720 280.568,211.964 282.676 L 213.773 284.375 256.800 284.375 C 296.662 284.375,299.942 284.476,301.390 285.742 C 303.122 287.258,294.224 383.874,292.119 386.411 C 290.749 388.061,109.234 388.041,107.864 386.390 C 105.772 383.870,96.918 287.275,98.639 285.742 C 100.062 284.474,103.411 284.375,144.952 284.375 L 189.730 284.375 191.350 282.317 C 194.010 278.934,192.934 274.260,189.131 272.685 C 187.685 272.086,173.262 271.893,141.381 272.046 L 95.703 272.266 92.452 274.128 C 84.722 278.557,83.913 281.841,85.866 300.861 C 86.719 309.170,87.309 316.076,87.179 316.207 C 87.048 316.338,83.463 315.867,79.213 315.161 C 70.818 313.766,54.220 313.321,48.174 314.330 L 44.394 314.960 51.571 301.198 C 59.117 286.728,59.500 285.211,56.459 281.836 C 55.009 280.228,50.145 279.997,48.218 281.445 C 46.187 282.972,23.026 327.882,21.181 333.871 C 12.557 361.870,33.294 377.773,80.623 379.458 L 93.667 379.923 94.199 384.297 C 95.014 391.006,98.307 396.299,103.282 398.898 C 106.440 400.548,293.560 400.548,296.718 398.898 C 301.693 396.299,304.986 391.006,305.801 384.297 L 306.333 379.923 319.377 379.458 C 375.476 377.461,392.185 358.189,372.013 318.750 C 329.838 236.290,323.155 228.814,288.854 225.722 C 272.156 224.216,266.849 221.982,257.407 212.485 L 251.299 206.341 256.274 201.022 C 263.162 193.659,271.090 181.165,274.701 171.985 L 277.734 164.273 283.645 163.861 C 294.921 163.075,303.262 157.098,305.940 147.885 C 309.092 137.044,306.432 119.557,300.866 114.527 C 299.317 113.128,299.218 112.265,299.212 100.074 C 299.190 55.840,283.693 28.148,249.353 10.981 C 231.804 2.208,200.676 -2.376,180.263 0.807 M224.396 15.466 C 265.653 26.213,286.681 54.277,286.712 98.633 L 286.719 107.813 283.669 107.813 L 280.619 107.813 280.111 99.414 C 277.077 49.223,247.751 20.246,200.000 20.256 C 150.021 20.266,114.844 52.437,114.844 98.133 L 114.844 107.813 111.719 107.813 L 108.594 107.813 108.594 96.180 C 108.594 65.554,119.479 43.959,142.876 28.167 C 164.304 13.705,197.676 8.505,224.396 15.466 M214.953 34.051 C 246.348 40.003,265.615 63.344,266.973 97.070 L 267.406 107.813 246.286 107.813 C 208.098 107.813,197.714 105.506,177.729 92.588 C 160.058 81.164,155.238 82.229,141.166 100.665 C 137.235 105.816,134.008 107.813,129.616 107.813 L 127.150 107.813 127.537 96.289 C 128.963 53.835,168.990 25.337,214.953 34.051 M170.580 103.249 C 192.424 117.478,204.862 120.313,245.448 120.313 L 267.188 120.313 267.188 137.022 C 267.188 164.210,261.811 177.346,243.003 196.107 C 215.047 223.994,188.164 226.362,159.539 203.459 C 136.815 185.278,128.071 167.422,127.526 138.086 L 127.195 120.313 130.643 120.313 C 138.942 120.313,146.672 115.665,152.527 107.156 C 159.941 96.380,160.012 96.364,170.580 103.249 M114.844 136.038 L 114.844 151.764 110.852 151.234 C 103.596 150.272,100.915 147.212,100.237 139.120 C 99.169 126.389,102.717 120.493,111.523 120.362 L 114.844 120.313 114.844 136.038 M289.516 121.786 C 293.228 124.050,294.531 127.656,294.530 135.665 C 294.528 146.342,291.825 150.223,283.668 151.259 L 279.445 151.796 279.948 148.750 C 280.225 147.074,280.455 139.990,280.460 133.008 L 280.469 120.313 283.789 120.315 C 285.658 120.317,288.161 120.960,289.516 121.786 M167.188 141.406 C 162.620 145.974,165.760 159.375,171.398 159.375 C 176.424 159.375,177.734 157.355,177.734 149.609 C 177.734 140.552,172.282 136.311,167.188 141.406 M218.025 141.902 C 215.539 145.063,215.662 155.278,218.214 157.676 C 223.552 162.691,228.906 158.580,228.906 149.469 C 228.906 140.591,222.540 136.163,218.025 141.902 M256.937 229.365 C 260.107 231.238,260.101 231.259,255.110 235.707 C 228.980 258.997,169.214 258.785,143.687 235.312 L 139.641 231.592 142.951 229.401 C 144.772 228.197,148.458 224.959,151.144 222.207 L 156.026 217.203 162.472 221.077 C 187.784 236.290,213.296 235.104,237.963 217.566 L 241.743 214.879 248.121 221.402 C 251.629 224.990,255.596 228.573,256.937 229.365 M195.039 313.320 C 171.324 317.297,166.700 346.849,188.214 356.938 C 194.713 359.985,206.366 359.932,212.279 356.828 C 237.728 343.464,223.868 308.485,195.039 313.320 M68.750 326.582 C 72.832 327.008,79.012 327.917,82.484 328.602 L 88.795 329.848 90.501 347.151 C 91.439 356.667,92.202 365.123,92.197 365.942 C 92.188 367.361,91.647 367.407,80.664 366.935 C 43.002 365.316,27.877 356.096,33.146 337.970 C 35.135 331.129,40.070 328.230,52.466 326.622 C 59.446 325.717,60.427 325.714,68.750 326.582 M207.422 327.564 C 215.441 332.072,214.495 342.032,205.689 345.799 C 195.319 350.237,183.325 340.835,188.125 332.031 C 191.391 326.041,200.827 323.856,207.422 327.564 M352.097 327.392 C 364.504 330.113,367.510 333.458,367.555 344.589 C 367.590 353.608,362.771 358.546,350.045 362.529 C 337.588 366.428,307.822 368.833,307.803 365.942 C 307.798 365.123,308.561 356.663,309.500 347.141 L 311.207 329.829 317.947 328.520 C 331.691 325.850,343.320 325.466,352.097 327.392 " stroke="none" fill="#00cf5d" fill-rule="evenodd"></path></g></svg>