<svg id="svg" version="1.1" xmlns="http://www.w3.org/2000/svg" xmlns:xlink="http://www.w3.org/1999/xlink" width="400" height="400" viewBox="0, 0, 400,400"><g id="svgg"><path id="path0" d="M102.492 59.440 C 99.918 61.469,100.000 60.668,100.000 83.637 L 100.000 104.514 101.943 106.457 L 103.886 108.400 158.405 108.400 L 212.924 108.400 214.263 109.421 C 216.408 111.057,216.800 112.227,216.800 116.999 L 216.800 121.238 214.819 123.219 L 212.838 125.200 187.433 125.200 L 162.028 125.200 160.593 126.459 C 159.805 127.152,158.877 128.277,158.533 128.959 C 157.631 130.745,156.485 131.905,154.111 133.432 C 152.963 134.171,151.488 135.546,150.834 136.488 C 148.595 139.715,147.911 140.433,145.768 141.803 C 144.588 142.558,143.088 143.946,142.434 144.888 C 140.201 148.106,139.512 148.831,137.423 150.168 C 133.391 152.748,133.600 151.844,133.600 166.668 C 133.600 181.549,133.390 180.638,137.397 183.168 C 141.284 185.623,141.600 186.259,141.600 191.619 L 141.600 196.114 143.548 197.957 C 144.619 198.971,146.258 200.340,147.190 201.000 C 150.933 203.650,150.535 205.602,145.646 208.572 C 143.835 209.672,142.910 210.605,141.673 212.578 C 140.422 214.573,139.481 215.516,137.469 216.786 C 133.206 219.479,133.600 215.669,133.600 254.172 L 133.600 287.972 134.817 289.358 C 135.486 290.120,136.817 291.203,137.774 291.764 C 141.176 293.757,141.600 294.637,141.600 299.693 C 141.600 304.852,142.077 305.830,145.747 308.191 C 148.035 309.663,149.050 310.696,150.357 312.883 C 152.201 315.965,153.136 316.400,157.931 316.401 C 162.882 316.403,164.078 316.893,165.899 319.661 C 166.505 320.581,167.741 322.114,168.647 323.067 L 170.295 324.800 178.855 324.800 C 188.866 324.800,189.195 324.911,191.787 329.179 C 194.346 333.390,193.562 333.200,208.331 333.200 L 221.139 333.200 222.398 332.141 C 223.090 331.558,224.319 330.080,225.129 328.856 C 227.773 324.860,227.962 324.800,237.828 324.800 L 246.339 324.800 247.577 323.758 C 248.258 323.185,249.280 321.923,249.847 320.955 C 250.415 319.987,251.614 318.566,252.512 317.797 L 254.144 316.400 258.641 316.400 C 263.881 316.400,264.605 316.028,266.743 312.240 C 267.585 310.747,268.532 309.742,269.846 308.946 C 270.886 308.316,272.426 307.146,273.268 306.347 L 274.800 304.894 274.800 300.319 L 274.800 295.744 276.197 294.112 C 276.966 293.214,278.387 292.015,279.355 291.447 C 282.806 289.425,283.200 288.592,283.200 283.317 L 283.200 278.695 281.453 276.947 L 279.705 275.200 262.406 275.200 L 245.106 275.200 243.653 276.724 C 242.854 277.562,241.750 279.023,241.200 279.971 C 240.650 280.918,239.573 282.123,238.807 282.647 L 237.414 283.600 216.887 283.600 C 199.745 283.600,196.175 283.504,195.240 283.020 C 194.071 282.416,191.600 279.834,191.600 279.217 C 191.600 278.487,189.422 276.310,187.393 275.012 C 186.239 274.274,184.823 273.052,184.247 272.297 L 183.200 270.924 183.200 258.409 C 183.200 243.839,183.065 244.377,187.417 241.648 C 189.455 240.371,190.371 239.455,191.648 237.417 C 194.484 232.894,192.671 233.200,216.647 233.201 C 240.612 233.203,238.842 232.908,241.645 237.377 C 242.897 239.375,243.828 240.304,245.836 241.564 C 247.854 242.829,248.774 243.750,250.048 245.783 C 252.780 250.140,252.218 250.000,266.958 250.000 L 279.621 250.000 281.411 248.211 L 283.200 246.421 283.200 233.441 L 283.200 220.461 282.145 219.208 C 281.565 218.519,280.125 217.337,278.945 216.582 C 277.765 215.827,276.304 214.474,275.700 213.575 C 273.847 210.820,272.339 209.188,271.041 208.533 C 269.255 207.631,268.095 206.485,266.568 204.111 C 265.829 202.963,264.454 201.488,263.512 200.834 C 260.291 198.599,259.568 197.912,258.220 195.804 C 257.478 194.644,256.252 193.223,255.497 192.647 L 254.124 191.600 245.624 191.600 C 235.724 191.600,235.850 191.643,233.168 187.397 C 230.573 183.287,232.589 183.600,208.714 183.599 C 185.323 183.597,186.572 183.745,184.246 180.696 C 182.660 178.617,182.660 171.383,184.246 169.304 C 186.616 166.197,184.283 166.403,217.069 166.401 L 246.339 166.400 247.547 165.383 C 248.212 164.824,249.155 163.699,249.643 162.883 C 250.954 160.689,251.966 159.663,254.289 158.168 C 255.437 157.429,256.912 156.054,257.566 155.112 C 259.799 151.894,260.488 151.169,262.577 149.832 C 266.681 147.207,266.400 148.701,266.400 129.493 C 266.400 110.828,266.323 111.390,269.158 109.294 L 270.368 108.400 291.577 108.400 L 312.786 108.400 314.593 106.669 L 316.400 104.937 316.400 83.416 L 316.400 61.895 314.653 60.147 L 312.905 58.400 208.353 58.404 L 103.800 58.409 102.492 59.440 " stroke="none" fill="#ec1c24" fill-rule="evenodd"></path></g></svg>