<svg width="21" height="21" viewBox="0 0 21 21" fill="none" xmlns="http://www.w3.org/2000/svg">
<path fill-rule="evenodd" clip-rule="evenodd" d="M19.5291 5.095C19.9925 3.59994 19.8096 1.97919 19.0247 0.625C18.8907 0.392897 18.643 0.24994 18.375 0.25C16.6036 0.246292 14.9349 1.08067 13.875 2.5H11.625C10.5651 1.08067 8.89638 0.246292 7.125 0.25C6.85699 0.24994 6.60932 0.392897 6.47531 0.625C5.69035 1.97919 5.50747 3.59994 5.97094 5.095C5.50756 5.9038 5.25934 6.81791 5.25 7.75V8.5C5.25326 11.1241 7.19154 13.3436 9.79125 13.7003C9.27807 14.357 8.99952 15.1666 9 16V16.75H6.75C5.50736 16.75 4.5 15.7426 4.5 14.5C4.5 12.4289 2.82107 10.75 0.75 10.75C0.335786 10.75 0 11.0858 0 11.5C0 11.9142 0.335786 12.25 0.75 12.25C1.99264 12.25 3 13.2574 3 14.5C3 16.5711 4.67893 18.25 6.75 18.25H9V19.75C9 20.1642 9.33579 20.5 9.75 20.5C10.1642 20.5 10.5 20.1642 10.5 19.75V16C10.5 14.7574 11.5074 13.75 12.75 13.75C13.9926 13.75 15 14.7574 15 16V19.75C15 20.1642 15.3358 20.5 15.75 20.5C16.1642 20.5 16.5 20.1642 16.5 19.75V16C16.5005 15.1666 16.2219 14.357 15.7087 13.7003C18.3085 13.3436 20.2467 11.1241 20.25 8.5V7.75C20.2407 6.81791 19.9924 5.9038 19.5291 5.095ZM18.75 8.5C18.75 10.5711 17.0711 12.25 15 12.25H10.5C8.42893 12.25 6.75 10.5711 6.75 8.5V7.75C6.7592 7.00002 6.98373 6.26849 7.39687 5.6425C7.55345 5.43612 7.59244 5.16356 7.5 4.92156C7.10545 3.90402 7.1321 2.7713 7.57406 1.77344C8.8174 1.90719 9.9324 2.59924 10.6041 3.65406C10.7414 3.86876 10.9783 3.99905 11.2331 4H14.2659C14.5218 4.00001 14.76 3.8696 14.8978 3.65406C15.5694 2.59913 16.6844 1.90706 17.9278 1.77344C18.3692 2.77155 18.3951 3.90427 18 4.92156C17.9079 5.16109 17.9432 5.43094 18.0938 5.63875C18.511 6.26474 18.7388 6.99778 18.75 7.75V8.5Z" fill="#4F6E96"/>
</svg>
