<svg width="17" height="18" viewBox="0 0 17 18" fill="none" xmlns="http://www.w3.org/2000/svg">
<path fill-rule="evenodd" clip-rule="evenodd" d="M16.2742 4.9125C16.6604 3.66662 16.508 2.31599 15.8539 1.1875C15.7422 0.994081 15.5358 0.87495 15.3125 0.875C13.8363 0.87191 12.4457 1.56722 11.5625 2.75H9.6875C8.80428 1.56722 7.41365 0.87191 5.9375 0.875C5.71416 0.87495 5.50776 0.994081 5.39609 1.1875C4.74196 2.31599 4.58956 3.66662 4.97578 4.9125C4.58963 5.5865 4.38278 6.34826 4.375 7.125V7.75C4.37772 9.93672 5.99295 11.7864 8.15938 12.0836C7.73173 12.6308 7.4996 13.3055 7.5 14V14.625H5.625C4.58947 14.625 3.75 13.7855 3.75 12.75C3.75 11.0241 2.35089 9.625 0.625 9.625C0.279822 9.625 0 9.90482 0 10.25C0 10.5952 0.279822 10.875 0.625 10.875C1.66053 10.875 2.5 11.7145 2.5 12.75C2.5 14.4759 3.89911 15.875 5.625 15.875H7.5V17.125C7.5 17.4702 7.77982 17.75 8.125 17.75C8.47018 17.75 8.75 17.4702 8.75 17.125V14C8.75 12.9645 9.58947 12.125 10.625 12.125C11.6605 12.125 12.5 12.9645 12.5 14V17.125C12.5 17.4702 12.7798 17.75 13.125 17.75C13.4702 17.75 13.75 17.4702 13.75 17.125V14C13.7504 13.3055 13.5183 12.6308 13.0906 12.0836C15.257 11.7864 16.8723 9.93672 16.875 7.75V7.125C16.8672 6.34826 16.6604 5.5865 16.2742 4.9125ZM15.625 7.75C15.625 9.47589 14.2259 10.875 12.5 10.875H8.75C7.02411 10.875 5.625 9.47589 5.625 7.75V7.125C5.63266 6.50002 5.81978 5.89041 6.16406 5.36875C6.29454 5.19677 6.32703 4.96963 6.25 4.76797C5.92121 3.92002 5.94342 2.97608 6.31172 2.14453C7.34784 2.25599 8.277 2.8327 8.83672 3.71172C8.95113 3.89063 9.14857 3.99921 9.36094 4H11.8883C12.1015 4.00001 12.3 3.89133 12.4148 3.71172C12.9745 2.83261 13.9037 2.25588 14.9398 2.14453C15.3076 2.97629 15.3293 3.92023 15 4.76797C14.9233 4.96758 14.9527 5.19245 15.0781 5.36562C15.4258 5.88729 15.6157 6.49815 15.625 7.125V7.75Z" fill="#0D141C"/>
</svg>
