<svg width="18" height="18" viewBox="0 0 18 18" fill="none" xmlns="http://www.w3.org/2000/svg">
<path fill-rule="evenodd" clip-rule="evenodd" d="M15.875 0.875H2.125C1.43464 0.875 0.875 1.43464 0.875 2.125V15.875C0.875 16.5654 1.43464 17.125 2.125 17.125H15.875C16.5654 17.125 17.125 16.5654 17.125 15.875V2.125C17.125 1.43464 16.5654 0.875 15.875 0.875ZM15.875 15.875H2.125V2.125H15.875V15.875ZM6.5 7.75V12.75C6.5 13.0952 6.22018 13.375 5.875 13.375C5.52982 13.375 5.25 13.0952 5.25 12.75V7.75C5.25 7.40482 5.52982 7.125 5.875 7.125C6.22018 7.125 6.5 7.40482 6.5 7.75ZM13.375 9.9375V12.75C13.375 13.0952 13.0952 13.375 12.75 13.375C12.4048 13.375 12.125 13.0952 12.125 12.75V9.9375C12.125 9.07456 11.4254 8.375 10.5625 8.375C9.69956 8.375 9 9.07456 9 9.9375V12.75C9 13.0952 8.72018 13.375 8.375 13.375C8.02982 13.375 7.75 13.0952 7.75 12.75V7.75C7.75161 7.43313 7.9901 7.1676 8.30498 7.1321C8.61986 7.0966 8.91148 7.30237 8.98359 7.61094C9.84519 7.02645 10.9592 6.96576 11.8792 7.45317C12.7992 7.94059 13.3747 8.89636 13.375 9.9375ZM6.8125 5.5625C6.8125 6.08027 6.39277 6.5 5.875 6.5C5.35723 6.5 4.9375 6.08027 4.9375 5.5625C4.9375 5.04473 5.35723 4.625 5.875 4.625C6.39277 4.625 6.8125 5.04473 6.8125 5.5625Z" fill="#0D141C"/>
</svg>
